<?xml version="1.0" encoding="utf-8"?>
<!-- Generator: Adobe Illustrator 25.0.0, SVG Export Plug-In . SVG Version: 6.00 Build 0)  -->
<svg version="1.1" id="Capa_1" xmlns="http://www.w3.org/2000/svg" xmlns:xlink="http://www.w3.org/1999/xlink" x="0px" y="0px"
	 viewBox="0 0 99.2 102.7" style="enable-background:new 0 0 99.2 102.7;" xml:space="preserve">
<style type="text/css">
	.st0{fill:#FFFFFF;}
	.st1{fill:#1B89FF;}
	.st2{fill:#3558CC;}
	.st3{fill:#064E9C;}
</style>
<g>
	<rect x="46" y="11.2" class="st0" width="31" height="56"/>
	<rect x="76.6" y="23" class="st0" width="12.1" height="44.1"/>
	<rect x="75.8" y="11.7" transform="matrix(0.7071 -0.7071 0.7071 0.7071 9.3091 62.4119)" class="st0" width="8.3" height="16.5"/>
	<path class="st1" d="M89.1,22.2l-1.4-1.4l-9.5-9.5l0,0l-0.8-0.8C77,10.1,76.6,10,76.1,10h-29c-1.2,0-2.5,0.9-2.5,2.9V49v16.5V66
		c0,0.8,0.8,1.7,1.8,1.9c0.1,0,0.1,0,0.2,0c0.2,0,0.3,0,0.5,0h40.1c0.2,0,0.3,0,0.5,0c0.1,0,0.1,0,0.2,0c1-0.3,1.8-1.1,1.8-1.9v-0.5
		V49V24C89.7,23.2,89.6,22.6,89.1,22.2z M77.7,13.6l8.4,8.4h-8.4V13.6z M47.1,66c-0.1,0-0.1,0-0.2,0c-0.2-0.1-0.3-0.2-0.3-0.4V51h41
		v14.5c0,0.2-0.1,0.3-0.3,0.4c-0.1,0-0.1,0-0.2,0L47.1,66L47.1,66z M46.7,49V12.9c0-0.2,0-0.9,0.5-0.9h28.6c0,0.1-0.1,0.3-0.1,0.4
		v11.4c-0.5-0.5-1.2-0.8-2-0.8c-0.6,0-1,0.4-1,1s0.4,1,1,1s1,0.4,1,1v4c0,1.2,0.5,2.3,1.4,3c-0.8,0.7-1.4,1.8-1.4,3v4
		c0,0.6-0.4,1-1,1s-1,0.4-1,1s0.4,1,1,1c1.7,0,3-1.3,3-3v-4c0-1.1,0.9-2,2-2c0.6,0,1-0.4,1-1s-0.4-1-1-1c-1.1,0-2-0.9-2-2v-4
		c0-0.8-0.3-1.5-0.8-2h11.4c0.1,0,0.3,0,0.4-0.1l0,0v25L46.7,49L46.7,49z"/>
	<path class="st1" d="M54.5,61.4c0,0.4-0.2,0.8-0.5,1s-0.7,0.3-1.2,0.3c-0.2,0-0.4,0-0.6-0.1c-0.2,0-0.4-0.1-0.6-0.2
		c-0.2-0.1-0.4-0.1-0.6-0.2s-0.3-0.1-0.4-0.2L50,63.2c0.2,0.1,0.4,0.3,0.7,0.4s0.5,0.2,0.8,0.3s0.6,0.2,0.8,0.2
		c0.3,0,0.5,0.1,0.7,0.1c0.4,0,0.8,0,1.2-0.1s0.7-0.2,1-0.4s0.5-0.5,0.7-0.8s0.3-0.7,0.3-1.2v-7.8h-1.7
		C54.5,53.7,54.5,61.4,54.5,61.4z"/>
	<path class="st1" d="M63.3,59.1c-0.3-0.2-0.7-0.4-1-0.6s-0.7-0.3-1-0.5s-0.6-0.4-0.8-0.6s-0.3-0.5-0.3-0.9c0-0.1,0-0.3,0.1-0.5
		s0.2-0.3,0.3-0.4c0.1-0.1,0.3-0.2,0.4-0.3c0.2-0.1,0.3-0.1,0.5-0.2c0.3,0,0.6,0,0.8,0s0.4,0,0.5,0.1c0.1,0,0.2,0.1,0.3,0.1
		s0.1,0.1,0.2,0.1c0,0,0-0.1,0.1-0.1s0.1-0.2,0.2-0.3s0.1-0.3,0.2-0.4c0.1-0.1,0.1-0.3,0.2-0.4c-0.3-0.2-0.6-0.3-1-0.4
		c-0.4-0.1-0.9-0.1-1.3-0.1c-0.4,0-0.8,0.1-1.2,0.2c-0.4,0.1-0.7,0.3-1,0.6c-0.3,0.2-0.5,0.5-0.7,0.9c-0.2,0.3-0.2,0.7-0.2,1.2
		s0.1,0.9,0.3,1.2s0.5,0.6,0.8,0.9c0.3,0.2,0.7,0.5,1,0.6c0.4,0.2,0.7,0.4,1,0.5c0.3,0.2,0.6,0.4,0.8,0.6s0.3,0.5,0.3,0.8
		c0,0.5-0.1,0.9-0.4,1.2c-0.3,0.3-0.7,0.4-1.3,0.4c-0.2,0-0.4,0-0.6-0.1s-0.4-0.1-0.6-0.1s-0.4-0.1-0.6-0.2s-0.4-0.1-0.5-0.2
		l-0.3,1.2c0.2,0.1,0.3,0.3,0.6,0.3s0.4,0.2,0.7,0.2C60,64,60.2,64,60.4,64s0.5,0,0.7,0c0.5,0,1-0.1,1.4-0.2s0.7-0.4,1-0.6
		s0.5-0.6,0.6-0.9c0.2-0.3,0.2-0.7,0.2-1.1c0-0.5-0.1-1-0.3-1.3C63.8,59.6,63.6,59.3,63.3,59.1z"/>
	<path class="st1" d="M73,55.1c-0.4-0.4-0.8-0.8-1.3-1s-1.1-0.3-1.7-0.3s-1.2,0.1-1.7,0.3s-0.9,0.5-1.3,1s-0.7,1-0.9,1.6
		c-0.2,0.6-0.3,1.4-0.3,2.2s0.1,1.6,0.3,2.2s0.5,1.2,0.9,1.6s0.8,0.8,1.3,1S69.4,64,70,64s1.2-0.1,1.7-0.3s0.9-0.5,1.3-1
		s0.7-1,0.9-1.6c0.2-0.6,0.3-1.4,0.3-2.2s-0.1-1.6-0.3-2.2C73.7,56,73.4,55.5,73,55.1z M72.4,60.7c-0.1,0.5-0.3,0.9-0.6,1.2
		c-0.2,0.3-0.5,0.5-0.8,0.6s-0.6,0.2-1,0.2c-0.3,0-0.6-0.1-0.9-0.2s-0.6-0.4-0.8-0.7c-0.2-0.3-0.4-0.7-0.5-1.2s-0.2-1.1-0.2-1.8
		s0.1-1.3,0.2-1.8s0.3-0.9,0.6-1.2c0.2-0.3,0.5-0.5,0.8-0.6s0.6-0.2,1-0.2c0.3,0,0.6,0.1,0.9,0.2s0.6,0.4,0.8,0.7
		c0.2,0.3,0.4,0.7,0.5,1.2s0.2,1.1,0.2,1.7C72.6,59.6,72.5,60.2,72.4,60.7z"/>
	<polygon class="st1" points="82.2,60.9 78.2,53.9 76.6,53.9 76.6,64 78.2,64 78.2,57.1 82.2,64 83.9,64 83.9,53.9 82.2,53.9 	"/>
	<path class="st1" d="M58.7,30v-4c0-0.6,0.4-1,1-1s1-0.4,1-1s-0.4-1-1-1c-1.7,0-3,1.3-3,3v4c0,1.1-0.9,2-2,2c-0.6,0-1,0.4-1,1
		s0.4,1,1,1c1.1,0,2,0.9,2,2v4c0,1.7,1.3,3,3,3c0.6,0,1-0.4,1-1s-0.4-1-1-1s-1-0.4-1-1v-4c0-1.2-0.5-2.3-1.4-3
		C58.1,32.3,58.7,31.2,58.7,30z"/>
	<circle class="st1" cx="66.7" cy="29.5" r="1.5"/>
	<path class="st1" d="M66.7,35c-0.6,0-1,0.4-1,1v3c0,0.6,0.4,1,1,1s1-0.4,1-1v-3C67.7,35.4,67.2,35,66.7,35z"/>
</g>
<g>
	<rect x="30.8" y="23.2" class="st0" width="31" height="56"/>
	<rect x="61.4" y="35" class="st0" width="12.1" height="44.1"/>
	<rect x="60.6" y="23.7" transform="matrix(0.7071 -0.7071 0.7071 0.7071 -3.6282 55.17)" class="st0" width="8.3" height="16.5"/>
	<path class="st2" d="M73.9,34.2l-1.4-1.4L63,23.3l0,0l-0.8-0.8C61.9,22.2,61.5,22,61,22H32c-1.2,0-2.5,0.9-2.5,2.9V61v16.5V78
		c0,0.8,0.8,1.7,1.8,1.9c0.1,0,0.1,0,0.2,0c0.2,0,0.3,0,0.5,0h40c0.2,0,0.3,0,0.5,0c0.1,0,0.1,0,0.2,0c1-0.3,1.8-1.1,1.8-1.9v-0.5
		V61V36C74.5,35.2,74.4,34.6,73.9,34.2z M62.5,25.6l8.4,8.4h-8.4V25.6z M31.9,78c-0.1,0-0.1,0-0.2,0c-0.2-0.1-0.3-0.2-0.3-0.4V63h41
		v14.5c0,0.2-0.1,0.3-0.3,0.4c-0.1,0-0.1,0-0.2,0L31.9,78L31.9,78z M31.5,61V24.9c0-0.2,0-0.9,0.5-0.9h28.6c0,0.1-0.1,0.3-0.1,0.4
		v11.4c-0.5-0.5-1.2-0.8-2-0.8c-0.6,0-1,0.4-1,1s0.4,1,1,1s1,0.4,1,1v4c0,1.2,0.5,2.3,1.4,3c-0.8,0.7-1.4,1.8-1.4,3v4
		c0,0.6-0.4,1-1,1s-1,0.4-1,1s0.4,1,1,1c1.7,0,3-1.3,3-3v-4c0-1.1,0.9-2,2-2c0.6,0,1-0.4,1-1s-0.4-1-1-1c-1.1,0-2-0.9-2-2v-4
		c0-0.8-0.3-1.5-0.8-2h11.4c0.1,0,0.3,0,0.4-0.1l0,0v25L31.5,61L31.5,61z"/>
	<path class="st2" d="M39.3,73.4c0,0.4-0.2,0.8-0.5,1s-0.7,0.3-1.2,0.3c-0.2,0-0.4,0-0.6-0.1c-0.2,0-0.4-0.1-0.6-0.2
		c-0.2-0.1-0.4-0.1-0.6-0.2s-0.3-0.1-0.4-0.2l-0.7,1.1c0.2,0.1,0.4,0.3,0.7,0.4s0.5,0.2,0.8,0.3c0.3,0.1,0.6,0.1,0.8,0.2
		s0.5,0.1,0.7,0.1c0.4,0,0.8,0,1.2-0.1s0.7-0.2,1-0.4s0.5-0.5,0.7-0.8S41,74,41,73.6v-7.8h-1.7C39.3,65.7,39.3,73.4,39.3,73.4z"/>
	<path class="st2" d="M48.1,71.1c-0.3-0.2-0.7-0.4-1-0.6c-0.4-0.2-0.7-0.3-1-0.5s-0.6-0.4-0.8-0.6S45,68.9,45,68.5
		c0-0.1,0-0.3,0.1-0.5s0.2-0.3,0.3-0.4s0.3-0.2,0.4-0.3c0.2-0.1,0.3-0.1,0.5-0.2c0.3,0,0.6,0,0.8,0s0.4,0,0.5,0.1
		c0.1,0,0.2,0.1,0.3,0.1s0.1,0.1,0.2,0.1c0,0,0-0.1,0.1-0.1s0.1-0.2,0.2-0.3c0.1-0.1,0.1-0.3,0.2-0.4c0.1-0.1,0.1-0.3,0.2-0.4
		c-0.3-0.2-0.6-0.3-1-0.4s-0.9-0.1-1.3-0.1c-0.4,0-0.8,0.1-1.2,0.2s-0.7,0.3-1,0.6c-0.3,0.2-0.5,0.5-0.7,0.9
		c-0.2,0.3-0.2,0.7-0.2,1.2s0.1,0.9,0.3,1.2s0.5,0.6,0.8,0.9c0.3,0.2,0.7,0.5,1,0.6c0.4,0.2,0.7,0.4,1,0.5c0.3,0.2,0.6,0.4,0.8,0.6
		s0.3,0.5,0.3,0.8c0,0.5-0.1,0.9-0.4,1.2c-0.3,0.3-0.7,0.4-1.3,0.4c-0.2,0-0.4,0-0.6-0.1c-0.2,0-0.4-0.1-0.6-0.1s-0.4-0.1-0.6-0.2
		s-0.4-0.1-0.5-0.2l-0.3,1.2c0.2,0.1,0.3,0.3,0.6,0.3s0.4,0.2,0.7,0.2C44.8,76,45,76,45.2,76s0.5,0,0.7,0c0.5,0,1-0.1,1.4-0.2
		s0.7-0.4,1-0.6s0.5-0.6,0.6-0.9c0.2-0.3,0.2-0.7,0.2-1.1c0-0.5-0.1-1-0.3-1.3C48.6,71.6,48.4,71.3,48.1,71.1z"/>
	<path class="st2" d="M57.8,67.1c-0.4-0.4-0.8-0.8-1.3-1s-1.1-0.3-1.7-0.3s-1.2,0.1-1.7,0.3c-0.5,0.2-0.9,0.5-1.3,1
		c-0.4,0.4-0.7,1-0.9,1.6s-0.3,1.4-0.3,2.2s0.1,1.6,0.3,2.2s0.5,1.2,0.9,1.6s0.8,0.8,1.3,1s1.1,0.3,1.7,0.3c0.6,0,1.2-0.1,1.7-0.3
		s0.9-0.5,1.3-1s0.7-1,0.9-1.6s0.3-1.4,0.3-2.2s-0.1-1.6-0.3-2.2C58.5,68,58.2,67.5,57.8,67.1z M57.2,72.7c-0.1,0.5-0.3,0.9-0.6,1.2
		c-0.2,0.3-0.5,0.5-0.8,0.6s-0.6,0.2-1,0.2c-0.3,0-0.6-0.1-0.9-0.2c-0.3-0.1-0.6-0.4-0.8-0.7s-0.4-0.7-0.5-1.2s-0.2-1.1-0.2-1.8
		c0-0.7,0.1-1.3,0.2-1.8c0.1-0.5,0.3-0.9,0.6-1.2c0.2-0.3,0.5-0.5,0.8-0.6s0.6-0.2,1-0.2c0.3,0,0.6,0.1,0.9,0.2
		c0.3,0.1,0.6,0.4,0.8,0.7s0.4,0.7,0.5,1.2s0.2,1.1,0.2,1.7C57.4,71.6,57.3,72.2,57.2,72.7z"/>
	<polygon class="st2" points="67,72.9 63,65.9 61.4,65.9 61.4,76 63,76 63,69.1 67,76 68.7,76 68.7,65.9 67,65.9 	"/>
	<path class="st2" d="M43.5,42v-4c0-0.6,0.4-1,1-1s1-0.4,1-1s-0.4-1-1-1c-1.7,0-3,1.3-3,3v4c0,1.1-0.9,2-2,2c-0.6,0-1,0.4-1,1
		s0.4,1,1,1c1.1,0,2,0.9,2,2v4c0,1.7,1.3,3,3,3c0.6,0,1-0.4,1-1s-0.4-1-1-1s-1-0.4-1-1v-4c0-1.2-0.5-2.3-1.4-3
		C42.9,44.3,43.5,43.2,43.5,42z"/>
	<circle class="st2" cx="51.5" cy="41.5" r="1.5"/>
	<path class="st2" d="M51.5,47c-0.6,0-1,0.4-1,1v3c0,0.6,0.4,1,1,1s1-0.4,1-1v-3C52.5,47.4,52,47,51.5,47z"/>
</g>
<g>
	<rect x="15.6" y="34.2" class="st0" width="31" height="56"/>
	<rect x="46.1" y="46" class="st0" width="12.1" height="44.1"/>
	
		<rect x="45.4" y="34.7" transform="matrix(0.7071 -0.7071 0.7071 0.7071 -15.8584 47.5843)" class="st0" width="8.3" height="16.5"/>
	<path class="st3" d="M58.7,45.2l-1.4-1.4l-9.5-9.5l0,0L47,33.5c-0.4-0.4-0.8-0.5-1.3-0.5h-29c-1.2,0-2.5,0.9-2.5,2.9V72v16.5V89
		c0,0.8,0.8,1.7,1.8,1.9c0.1,0,0.1,0,0.2,0c0.2,0,0.3,0,0.5,0h40.1c0.2,0,0.3,0,0.5,0c0.1,0,0.1,0,0.2,0c1-0.3,1.8-1.1,1.8-1.9v-0.5
		V72V47C59.2,46.2,59.1,45.6,58.7,45.2z M47.2,36.6l8.4,8.4h-8.4C47.2,45,47.2,36.6,47.2,36.6z M16.7,89c-0.1,0-0.1,0-0.2,0
		c-0.2-0.1-0.3-0.2-0.3-0.4V74h41v14.5c0,0.2-0.1,0.3-0.3,0.4c-0.1,0-0.1,0-0.2,0L16.7,89L16.7,89z M16.2,72V35.9
		c0-0.2,0-0.9,0.5-0.9h28.6c0,0.1-0.1,0.3-0.1,0.4v11.4c-0.5-0.5-1.2-0.8-2-0.8c-0.6,0-1,0.4-1,1s0.4,1,1,1s1,0.4,1,1v4
		c0,1.2,0.5,2.3,1.4,3c-0.8,0.7-1.4,1.8-1.4,3v4c0,0.6-0.4,1-1,1s-1,0.4-1,1s0.4,1,1,1c1.7,0,3-1.3,3-3v-4c0-1.1,0.9-2,2-2
		c0.6,0,1-0.4,1-1s-0.4-1-1-1c-1.1,0-2-0.9-2-2v-4c0-0.8-0.3-1.5-0.8-2h11.4c0.1,0,0.3,0,0.4-0.1l0,0v25L16.2,72L16.2,72z"/>
	<path class="st3" d="M24.1,84.4c0,0.4-0.2,0.8-0.5,1s-0.7,0.3-1.2,0.3c-0.2,0-0.4,0-0.6-0.1c-0.2,0-0.4-0.1-0.6-0.2
		s-0.4-0.1-0.6-0.2s-0.3-0.1-0.4-0.2l-0.7,1.1c0.2,0.1,0.4,0.3,0.7,0.4c0.3,0.1,0.5,0.2,0.8,0.3c0.3,0.1,0.6,0.1,0.8,0.2
		c0.3,0,0.5,0.1,0.7,0.1c0.4,0,0.8,0,1.2-0.1c0.4-0.1,0.7-0.2,1-0.4s0.5-0.5,0.7-0.8s0.3-0.7,0.3-1.2v-7.8H24
		C24.1,76.7,24.1,84.4,24.1,84.4z"/>
	<path class="st3" d="M32.8,82.1c-0.3-0.2-0.7-0.4-1-0.6c-0.4-0.2-0.7-0.3-1-0.5s-0.6-0.4-0.8-0.6c-0.2-0.2-0.3-0.5-0.3-0.9
		c0-0.1,0-0.3,0.1-0.5s0.2-0.3,0.3-0.4s0.3-0.2,0.4-0.3s0.3-0.1,0.5-0.2c0.3,0,0.6,0,0.8,0c0.2,0,0.4,0,0.5,0.1
		c0.1,0,0.2,0.1,0.3,0.1s0.1,0.1,0.2,0.1c0,0,0-0.1,0.1-0.1s0.1-0.2,0.2-0.3c0.1-0.1,0.1-0.3,0.2-0.4c0.1-0.1,0.1-0.3,0.2-0.4
		c-0.3-0.2-0.6-0.3-1-0.4s-0.9-0.1-1.3-0.1s-0.8,0.1-1.2,0.2c-0.4,0.1-0.7,0.3-1,0.6c-0.3,0.2-0.5,0.5-0.7,0.9s-0.2,0.7-0.2,1.2
		s0.1,0.9,0.3,1.2s0.5,0.6,0.8,0.9c0.3,0.2,0.7,0.5,1,0.6s0.7,0.4,1,0.5c0.3,0.2,0.6,0.4,0.8,0.6c0.2,0.2,0.3,0.5,0.3,0.8
		c0,0.5-0.1,0.9-0.4,1.2c-0.3,0.3-0.7,0.4-1.3,0.4c-0.2,0-0.4,0-0.6-0.1c-0.2,0-0.4-0.1-0.6-0.1s-0.4-0.1-0.6-0.2s-0.4-0.1-0.5-0.2
		L28,86.4c0.2,0.1,0.3,0.3,0.6,0.3s0.4,0.2,0.7,0.2C29.5,87,29.8,87,30,87s0.5,0,0.7,0c0.5,0,1-0.1,1.4-0.2s0.7-0.4,1-0.6
		s0.5-0.6,0.6-0.9c0.2-0.3,0.2-0.7,0.2-1.1c0-0.5-0.1-1-0.3-1.3S33.1,82.3,32.8,82.1z"/>
	<path class="st3" d="M42.6,78.1c-0.4-0.4-0.8-0.8-1.3-1s-1.1-0.3-1.7-0.3s-1.2,0.1-1.7,0.3c-0.5,0.2-0.9,0.5-1.3,1
		c-0.4,0.4-0.7,1-0.9,1.6s-0.3,1.4-0.3,2.2s0.1,1.6,0.3,2.2s0.5,1.2,0.9,1.6s0.8,0.8,1.3,1S39,87,39.6,87s1.2-0.1,1.7-0.3
		s0.9-0.5,1.3-1s0.7-1,0.9-1.6s0.3-1.4,0.3-2.2s-0.1-1.6-0.3-2.2C43.3,79,43,78.5,42.6,78.1z M41.9,83.7c-0.1,0.5-0.3,0.9-0.6,1.2
		c-0.2,0.3-0.5,0.5-0.8,0.6s-0.6,0.2-1,0.2c-0.3,0-0.6-0.1-0.9-0.2c-0.3-0.1-0.6-0.4-0.8-0.7s-0.4-0.7-0.5-1.2s-0.2-1.1-0.2-1.8
		c0-0.7,0.1-1.3,0.2-1.8c0.1-0.5,0.3-0.9,0.6-1.2c0.2-0.3,0.5-0.5,0.8-0.6s0.6-0.2,1-0.2c0.3,0,0.6,0.1,0.9,0.2
		c0.3,0.1,0.6,0.4,0.8,0.7s0.4,0.7,0.5,1.2s0.2,1.1,0.2,1.7C42.1,82.6,42.1,83.2,41.9,83.7z"/>
	<polygon class="st3" points="51.7,83.9 47.8,76.9 46.1,76.9 46.1,87 47.8,87 47.8,80.1 51.7,87 53.4,87 53.4,76.9 51.7,76.9 	"/>
	<path class="st3" d="M28.2,53v-4c0-0.6,0.4-1,1-1s1-0.4,1-1s-0.4-1-1-1c-1.7,0-3,1.3-3,3v4c0,1.1-0.9,2-2,2c-0.6,0-1,0.4-1,1
		s0.4,1,1,1c1.1,0,2,0.9,2,2v4c0,1.7,1.3,3,3,3c0.6,0,1-0.4,1-1s-0.4-1-1-1s-1-0.4-1-1v-4c0-1.2-0.5-2.3-1.4-3
		C27.7,55.3,28.2,54.2,28.2,53z"/>
	<circle class="st3" cx="36.2" cy="52.5" r="1.5"/>
	<path class="st3" d="M36.2,58c-0.6,0-1,0.4-1,1v3c0,0.6,0.4,1,1,1s1-0.4,1-1v-3C37.2,58.4,36.8,58,36.2,58z"/>
</g>
</svg>
