<?xml version="1.0" encoding="utf-8"?>
<!-- Generator: Adobe Illustrator 25.0.0, SVG Export Plug-In . SVG Version: 6.00 Build 0)  -->
<svg version="1.1" id="Слой_1" xmlns="http://www.w3.org/2000/svg" xmlns:xlink="http://www.w3.org/1999/xlink" x="0px" y="0px"
	 viewBox="0 0 98 98" style="enable-background:new 0 0 98 98;" xml:space="preserve">
<style type="text/css">
	.st0{fill:#084E9C;}
	.st1{fill:#1B89FF;stroke:#064E9C;stroke-width:2;stroke-miterlimit:10;}
	.st2{fill:#9FCBFF;stroke:#064E9C;stroke-width:2;stroke-miterlimit:10;}
	.st3{fill:#FFFFFF;stroke:#064E9C;stroke-width:2;stroke-miterlimit:10;}
</style>
<path class="st0" d="M48.1,48.1L10.2,86l1.8,1.8l37.9-37.9L48.1,48.1z"/>
<path class="st0" d="M47.8,48.6L35.2,86.5l2.4,0.8l12.6-37.9L47.8,48.6z"/>
<path class="st0" d="M48.6,47.8L10.7,60.4l0.8,2.4l37.9-12.6L48.6,47.8z"/>
<path class="st0" d="M11.5,35.2l-0.8,2.4l37.9,12.6l0.8-2.4L11.5,35.2z"/>
<path class="st0" d="M49.9,48.1l-1.8,1.8L86,87.8l1.8-1.8L49.9,48.1z"/>
<path class="st0" d="M50.2,48.6l-2.4,0.8l12.6,37.9l2.4-0.8L50.2,48.6z"/>
<path class="st0" d="M49.4,47.8l-0.8,2.4l37.9,12.6l0.8-2.4L49.4,47.8z"/>
<path class="st0" d="M86.5,35.2L48.6,47.8l0.8,2.4l37.9-12.6L86.5,35.2z"/>
<path class="st0" d="M37.6,10.7l-2.4,0.8l12.6,37.9l2.4-0.8L37.6,10.7z"/>
<path class="st0" d="M86,10.2L48.1,48.1l1.8,1.8L87.8,12L86,10.2z"/>
<path class="st1" d="M49,71.7c-12.6,0-22.7-10.2-22.7-22.7S36.4,26.3,49,26.3S71.7,36.4,71.7,49S61.6,71.7,49,71.7z"/>
<path class="st2" d="M21.2,76.8H1V97h20.2V76.8z"/>
<path class="st3" d="M41.4,81.8H31.3v10.1h10.1V81.8z"/>
<path class="st2" d="M71.7,76.8H51.5V97h20.2V76.8z"/>
<path class="st3" d="M92,81.8H81.8v10.1H92V81.8z"/>
<path class="st2" d="M21.2,26.3H1v20.2h20.2V26.3z"/>
<path class="st3" d="M16.2,56.6H6.1v10.1h10.1V56.6z"/>
<path class="st3" d="M92,31.3H81.8v10.1H92V31.3z"/>
<path class="st2" d="M97,51.5H76.8v20.2H97V51.5z"/>
<path class="st3" d="M41.4,6.1H31.3v10.1h10.1V6.1z"/>
<path class="st2" d="M97,1H76.8v20.2H97V1z"/>
</svg>
