<?xml version="1.0"?>
<svg xmlns="http://www.w3.org/2000/svg" xmlns:xlink="http://www.w3.org/1999/xlink" xmlns:svgjs="http://svgjs.com/svgjs" version="1.1" width="512" height="512" x="0" y="0" viewBox="0 0 512 512" style="enable-background:new 0 0 512 512" xml:space="preserve" class=""><g><path xmlns="http://www.w3.org/2000/svg" d="M328,48.364v240c0,13.25-68.05,24-152,24s-152-10.75-152-24v-240Z" style="" fill="#6ed2f0" data-original="#6ed2f0" class=""/><ellipse xmlns="http://www.w3.org/2000/svg" cx="176" cy="48.182" rx="152" ry="24.182" style="" fill="#3cb4d7" data-original="#3cb4d7" class=""/><path xmlns="http://www.w3.org/2000/svg" d="M488,216V456a32,32,0,0,1-32,32H248a32,32,0,0,1-32-32V168a32,32,0,0,1,32-32H408Z" style="" fill="#e9eef2" data-original="#e9eef2"/><path xmlns="http://www.w3.org/2000/svg" d="M488,216H440a32,32,0,0,1-32-32V136Z" style="" fill="#c3c6c7" data-original="#c3c6c7"/><path xmlns="http://www.w3.org/2000/svg" d="M413.657,130.343A8,8,0,0,0,408,128H336V48h-.008c0-.061.008-.121.008-.183,0-11.806-15.331-19.283-51.263-25-29.111-4.63-67.728-7.181-108.737-7.181S96.374,18.187,67.263,22.817C31.331,28.534,16,36.011,16,47.817c0,.062.007.122.008.183H16V288c0,11.76,15.334,19.2,51.272,24.873C96.381,317.469,134.994,320,176,320c10.814,0,21.525-.185,32-.536V456a40.045,40.045,0,0,0,40,40H456a40.045,40.045,0,0,0,40-40V216a8,8,0,0,0-2.343-5.657ZM416,155.313,468.687,208H440a24.028,24.028,0,0,1-24-24ZM76.363,37.633c27.439-3.867,62.824-6,99.637-6s72.2,2.13,99.637,6c26.2,3.692,37.414,7.83,41.981,10.184-4.567,2.355-15.78,6.493-41.981,10.186C248.2,61.87,212.813,64,176,64s-72.2-2.13-99.637-6c-26.2-3.693-37.414-7.831-41.981-10.186C38.949,45.463,50.162,41.325,76.363,37.633ZM208,303.457c-10.466.357-21.18.543-32,.543-36.8,0-72.174-2.112-99.609-5.947-33.042-4.619-42.278-9.947-44.391-11.54V224.4c8.249,3.284,19.861,6.043,35.272,8.477C96.381,237.469,134.994,240,176,240c10.806,0,21.527-.179,32-.53ZM208,168v55.461c-10.465.357-21.187.539-32,.539-36.8,0-72.174-2.112-99.609-5.947-33.042-4.62-42.277-9.946-44.391-11.541V144.4c8.249,3.284,19.861,6.043,35.272,8.477C96.381,157.469,134.994,160,176,160c11.13,0,22.158-.192,32.933-.564A39.959,39.959,0,0,0,208,168Zm8.724-24.893c-13.208.584-26.878.893-40.724.893-36.8,0-72.174-2.112-99.609-5.947-33.042-4.619-42.277-9.946-44.391-11.54V64.289c8.247,3.3,19.856,6.077,35.263,8.528C96.375,77.449,134.991,80,176,80s79.625-2.551,108.737-7.183c15.407-2.451,27.016-5.227,35.263-8.528V128H248A39.937,39.937,0,0,0,216.724,143.107ZM480,456a24.028,24.028,0,0,1-24,24H248a24.028,24.028,0,0,1-24-24V168a24.028,24.028,0,0,1,24-24H400v40a40.045,40.045,0,0,0,40,40h40Z" fill="#000000" data-original="#000000" style="" class=""/><path xmlns="http://www.w3.org/2000/svg" d="M328,256a8,8,0,0,0,0,16H440a8,8,0,0,0,0-16Z" fill="#000000" data-original="#000000" style="" class=""/><path xmlns="http://www.w3.org/2000/svg" d="M440,400H408a8,8,0,0,0,0,16h32a8,8,0,0,0,0-16Z" fill="#000000" data-original="#000000" style="" class=""/><path xmlns="http://www.w3.org/2000/svg" d="M264,272h32a8,8,0,0,0,0-16H264a8,8,0,0,0,0,16Z" fill="#000000" data-original="#000000" style="" class=""/><path xmlns="http://www.w3.org/2000/svg" d="M264,368h80a8,8,0,0,0,0-16H264a8,8,0,0,0,0,16Z" fill="#000000" data-original="#000000" style="" class=""/><path xmlns="http://www.w3.org/2000/svg" d="M264,224h48a8,8,0,0,0,0-16H264a8,8,0,0,0,0,16Z" fill="#000000" data-original="#000000" style="" class=""/><path xmlns="http://www.w3.org/2000/svg" d="M440,352H376a8,8,0,0,0,0,16h64a8,8,0,0,0,0-16Z" fill="#000000" data-original="#000000" style="" class=""/><path xmlns="http://www.w3.org/2000/svg" d="M376,400H264a8,8,0,0,0,0,16H376a8,8,0,0,0,0-16Z" fill="#000000" data-original="#000000" style="" class=""/><path xmlns="http://www.w3.org/2000/svg" d="M264,320H384a8,8,0,0,0,0-16H264a8,8,0,0,0,0,16Z" fill="#000000" data-original="#000000" style="" class=""/><path xmlns="http://www.w3.org/2000/svg" d="M440,304H416a8,8,0,0,0,0,16h24a8,8,0,0,0,0-16Z" fill="#000000" data-original="#000000" style="" class=""/></g></svg>
