<?xml version="1.0" encoding="utf-8"?>
<!-- Generator: Adobe Illustrator 25.0.0, SVG Export Plug-In . SVG Version: 6.00 Build 0)  -->
<svg version="1.1" id="Слой_1" xmlns="http://www.w3.org/2000/svg" xmlns:xlink="http://www.w3.org/1999/xlink" x="0px" y="0px"
	 viewBox="0 0 224 200" style="enable-background:new 0 0 224 200;" xml:space="preserve">
<style type="text/css">
	.st0{fill:#9FCBFF;}
	.st1{fill:#DBECFF;}
	.st2{fill:#1B89FF;}
	.st3{fill:none;stroke:#064E9C;stroke-width:3;stroke-miterlimit:10;}
</style>
<g id="XMLID_1_">
	<g>
		<rect x="166.8" y="119.8" class="st0" width="55.6" height="19.7"/>
		<rect x="166.8" y="60.8" class="st1" width="55.6" height="19.7"/>
		<rect x="112" y="159.2" class="st2" width="54.9" height="19.7"/>
		<rect x="112" y="100.1" class="st1" width="54.9" height="19.7"/>
		<rect x="112" y="21.4" class="st0" width="54.9" height="19.7"/>
		<rect x="112" y="178.8" class="st0" width="54.9" height="19.7"/>
		<rect x="55.9" y="139.5" class="st0" width="56.1" height="19.7"/>
		<rect x="55.9" y="80.5" class="st0" width="56.1" height="19.7"/>
		<rect x="55.9" y="41.1" class="st0" width="56.1" height="19.7"/>
		<polygon class="st2" points="1.5,159.2 1.8,159.2 55.9,159.2 55.9,178.8 1.8,178.8 1.5,178.8 		"/>
		<polygon class="st1" points="1.5,21.4 55.9,21.4 55.9,41.1 1.7,41.1 1.5,41.1 		"/>
	</g>
	<g>
		<polyline class="st3" points="112,1.5 112,21.4 112,41.1 112,60.8 112,80.5 112,100.1 112,119.8 112,139.5 112,159.2 112,178.8 
			112,198.5 		"/>
		<polyline class="st3" points="55.9,1.5 55.9,21.4 55.9,41.1 55.9,60.8 55.9,80.5 55.9,100.1 55.9,119.8 55.9,139.5 55.9,159.2 
			55.9,178.8 55.9,198.5 		"/>
		<polyline class="st3" points="166.8,1.5 166.8,21.4 166.8,41.1 166.8,60.8 166.8,80.5 166.8,100.1 166.8,119.8 166.8,139.5 
			166.8,159.2 166.8,178.8 166.8,198.5 		"/>
		<polyline class="st3" points="1.5,21.4 55.9,21.4 112,21.4 166.8,21.4 222.5,21.4 		"/>
		<polyline class="st3" points="1.7,41.1 55.9,41.1 112,41.1 166.8,41.1 222.5,41.1 		"/>
		<polyline class="st3" points="1.7,60.8 55.9,60.8 112,60.8 166.8,60.8 222.5,60.8 		"/>
		<polyline class="st3" points="1.7,80.5 55.9,80.5 112,80.5 166.8,80.5 222.5,80.5 		"/>
		<polyline class="st3" points="1.7,100.1 55.9,100.1 112,100.1 166.8,100.1 222.5,100.1 		"/>
		<polyline class="st3" points="1.8,119.8 55.9,119.8 112,119.8 166.8,119.8 222.5,119.8 222.6,119.8 		"/>
		<polyline class="st3" points="1.8,139.5 55.9,139.5 112,139.5 166.8,139.5 222.5,139.5 222.6,139.5 		"/>
		<polyline class="st3" points="1.8,159.2 55.9,159.2 112,159.2 166.8,159.2 222.5,159.2 222.6,159.2 		"/>
		<polyline class="st3" points="1.8,178.8 55.9,178.8 112,178.8 166.8,178.8 222.5,178.8 222.6,178.8 		"/>
		<path class="st3" d="M222.5,178.8v12.8c0,3.8-3.1,6.9-6.9,6.9h-48.8H112H55.9H8.4c-3.8,0-6.9-3.1-6.9-6.9v-12.8v-19.7v-19.7v-19.7
			v-19.7V80.5V60.8V41.1V21.4V8.4c0-3.8,3.1-6.9,6.9-6.9h47.5H112h54.9h48.8c3.8,0,6.9,3.1,6.9,6.9v13.1v19.7v19.7v19.7v19.7v19.7
			v19.7v19.7V178.8z"/>
	</g>
</g>
</svg>
