<?xml version="1.0" encoding="utf-8"?>
<!-- Generator: Adobe Illustrator 25.0.0, SVG Export Plug-In . SVG Version: 6.00 Build 0)  -->
<svg version="1.1" xmlns="http://www.w3.org/2000/svg" xmlns:xlink="http://www.w3.org/1999/xlink" x="0px" y="0px"
	 viewBox="0 0 179.4 200" style="enable-background:new 0 0 179.4 200;" xml:space="preserve">
<style type="text/css">
	.st0{fill:#064E9C;stroke:#064E9C;stroke-width:3;stroke-linejoin:round;stroke-miterlimit:5;}
	.st1{fill:#FFFFFF;stroke:#3558CC;stroke-width:3;stroke-linejoin:round;stroke-miterlimit:5;}
	.st2{fill:#DCEDFF;stroke:#3558CC;stroke-width:3;stroke-linejoin:round;stroke-miterlimit:5;}
	.st3{fill:#9FCBFF;stroke:#3558CC;stroke-width:3;stroke-linejoin:round;stroke-miterlimit:5;}
	.st4{fill:#1B89FF;stroke:#3558CC;stroke-width:3;stroke-linejoin:round;stroke-miterlimit:5;}
</style>
<g id="Слой_1">
	<line class="st0" x1="46.8" y1="105.8" x2="33.1" y2="121.9"/>
	<line class="st0" x1="70.8" y1="105.8" x2="78.1" y2="122.4"/>
	<line class="st0" x1="120.2" y1="99.4" x2="135.3" y2="117.5"/>
	<line class="st0" x1="24.2" y1="152.1" x2="13.4" y2="168.2"/>
	<line class="st0" x1="103.3" y1="49" x2="114.7" y2="62.6"/>
	<line class="st0" x1="75.9" y1="48.8" x2="59.7" y2="68.8"/>
	<line class="st0" x1="42" y1="152.1" x2="48.9" y2="168.2"/>
	<line class="st0" x1="132" y1="150.9" x2="119.9" y2="168.2"/>
	<line class="st0" x1="154.8" y1="150.9" x2="166.1" y2="168.2"/>
</g>
<g id="Слой_2">
	<g>
		<path class="st1" d="M91.3,14.3V1.5H74.7c-2.1,0-3.8,1.7-3.8,3.8V45c0,2.1,1.7,3.8,3.8,3.8h29.4c2.1,0,3.8-1.7,3.8-3.8V18.1H95.1
			C93,18.1,91.3,16.4,91.3,14.3z"/>
		<line class="st1" x1="107.9" y1="18.1" x2="91.3" y2="1.5"/>
	</g>
	<g>
		<path class="st1" d="M121.7,72.6v-9.9h-12.9c-1.6,0-3,1.3-3,3v30.8c0,1.6,1.3,3,3,3h22.8c1.6,0,3-1.3,3-3V75.5h-9.9
			C123,75.5,121.7,74.2,121.7,72.6z"/>
		<line class="st1" x1="134.6" y1="75.5" x2="121.7" y2="62.6"/>
	</g>
	<g>
		<path class="st2" d="M60.8,79v-9.9H47.9c-1.6,0-3,1.3-3,3v30.8c0,1.6,1.3,3,3,3h22.8c1.6,0,3-1.3,3-3V82h-9.9
			C62.2,82,60.8,80.7,60.8,79z"/>
		<line class="st2" x1="73.7" y1="82" x2="60.8" y2="69.1"/>
	</g>
	<g>
		<path class="st3" d="M34.3,130v-8.2H23.7c-1.4,0-2.5,1.1-2.5,2.5v25.4c0,1.4,1.1,2.5,2.5,2.5h18.8c1.4,0,2.5-1.1,2.5-2.5v-17.2
			h-8.2C35.4,132.5,34.3,131.4,34.3,130z"/>
		<line class="st3" x1="45" y1="132.5" x2="34.3" y2="121.9"/>
	</g>
	<g>
		<path class="st3" d="M86.3,130.6v-8.2H75.6c-1.4,0-2.5,1.1-2.5,2.5v25.4c0,1.4,1.1,2.5,2.5,2.5h18.8c1.4,0,2.5-1.1,2.5-2.5V133
			h-8.2C87.4,133,86.3,131.9,86.3,130.6z"/>
		<line class="st3" x1="96.9" y1="133" x2="86.3" y2="122.4"/>
	</g>
	<g>
		<path class="st3" d="M122.9,176.4v-8.2h-10.6c-1.4,0-2.5,1.1-2.5,2.5V196c0,1.4,1.1,2.5,2.5,2.5h18.8c1.4,0,2.5-1.1,2.5-2.5v-17.2
			h-8.2C124,178.9,122.9,177.8,122.9,176.4z"/>
		<line class="st3" x1="133.6" y1="178.9" x2="122.9" y2="168.2"/>
	</g>
	<g>
		<path class="st4" d="M14.6,176.4v-8.2H4c-1.4,0-2.5,1.1-2.5,2.5V196c0,1.4,1.1,2.5,2.5,2.5h18.8c1.4,0,2.5-1.1,2.5-2.5v-17.2H17
			C15.7,178.9,14.6,177.8,14.6,176.4z"/>
		<line class="st4" x1="25.2" y1="178.9" x2="14.6" y2="168.2"/>
	</g>
	<g>
		<path class="st4" d="M58.1,176.4v-8.2H47.4c-1.4,0-2.5,1.1-2.5,2.5V196c0,1.4,1.1,2.5,2.5,2.5h18.8c1.4,0,2.5-1.1,2.5-2.5v-17.2
			h-8.2C59.2,178.9,58.1,177.8,58.1,176.4z"/>
		<line class="st4" x1="68.7" y1="178.9" x2="58.1" y2="168.2"/>
	</g>
	<g>
		<path class="st4" d="M167.3,176.4v-8.2h-10.6c-1.4,0-2.5,1.1-2.5,2.5V196c0,1.4,1.1,2.5,2.5,2.5h18.8c1.4,0,2.5-1.1,2.5-2.5v-17.2
			h-8.2C168.4,178.9,167.3,177.8,167.3,176.4z"/>
		<line class="st4" x1="177.9" y1="178.9" x2="167.3" y2="168.2"/>
	</g>
	<g>
		<path class="st2" d="M144.9,124.1v-9.9H132c-1.6,0-3,1.3-3,3v30.8c0,1.6,1.3,3,3,3h22.8c1.6,0,3-1.3,3-3V127h-9.9
			C146.2,127,144.9,125.7,144.9,124.1z"/>
		<line class="st2" x1="157.8" y1="127" x2="144.9" y2="114.1"/>
	</g>
</g>
</svg>
