<?xml version="1.0" encoding="utf-8"?>
<!-- Generator: Adobe Illustrator 25.0.0, SVG Export Plug-In . SVG Version: 6.00 Build 0)  -->
<svg version="1.1" id="Слой_1" xmlns="http://www.w3.org/2000/svg" xmlns:xlink="http://www.w3.org/1999/xlink" x="0px" y="0px"
	 viewBox="0 0 185.5 200" style="enable-background:new 0 0 185.5 200;" xml:space="preserve">
<style type="text/css">
	.st0{fill:#DCEDFF;stroke:#064E9C;stroke-width:2;stroke-miterlimit:10;}
	.st1{fill:#FFFFFF;stroke:#064E9C;stroke-width:2;stroke-miterlimit:10;}
	.st2{fill:#064E9C;stroke:#064E9C;stroke-width:3;stroke-linejoin:round;stroke-miterlimit:5;}
	.st3{fill:#064E9C;}
	.st4{fill:#9FCBFF;stroke:#064E9C;stroke-width:2;stroke-miterlimit:10;}
	.st5{fill:#1B89FF;stroke:#064E9C;stroke-width:2;stroke-miterlimit:10;}
</style>
<path class="st0" d="M48.6,38.8H4.4c-1.9,0-3.4-1.5-3.4-3.4V4.4C1,2.5,2.5,1,4.4,1h44.1C50.4,1,52,2.5,52,4.4v30.9
	C52,37.2,50.4,38.8,48.6,38.8z"/>
<path class="st1" d="M181.3,38.8H86.1c-1.9,0-3.4-1.5-3.4-3.4V4.4c0-1.9,1.5-3.4,3.4-3.4h95.2c1.9,0,3.4,1.5,3.4,3.4v30.9
	C184.7,37.2,183.2,38.8,181.3,38.8z"/>
<line class="st2" x1="52" y1="19.9" x2="82.7" y2="19.9"/>
<g>
	<path class="st3" d="M13.4,20.2c0.3-0.4,0.7-1,1.3-1.6l3.6-3.8h2l-4.5,4.7l4.8,6.4h-2l-3.9-5.3l-1.3,1.1v4.2h-1.7V10.1h1.7v8.4
		C13.4,18.9,13.4,19.5,13.4,20.2L13.4,20.2z"/>
	<path class="st3" d="M27.4,26.1c-1.6,0-2.9-0.5-3.9-1.5c-1-1-1.4-2.4-1.4-4.2c0-1.8,0.4-3.2,1.3-4.3s2.1-1.6,3.6-1.6
		c1.4,0,2.5,0.5,3.3,1.4c0.8,0.9,1.2,2.1,1.2,3.6v1.1h-7.7c0,1.3,0.4,2.3,1,3s1.5,1,2.6,1c1.2,0,2.4-0.2,3.5-0.8v1.5
		c-0.6,0.3-1.2,0.4-1.7,0.6C28.7,26.1,28.1,26.1,27.4,26.1z M26.9,16c-0.9,0-1.6,0.3-2.1,0.9c-0.5,0.6-0.8,1.4-0.9,2.4h5.8
		c0-1.1-0.2-1.9-0.7-2.4C28.5,16.3,27.8,16,26.9,16z"/>
	<path class="st3" d="M32.5,14.8h1.8l2.4,6.3c0.5,1.4,0.9,2.5,1,3.1h0.1c0.1-0.3,0.3-0.9,0.6-1.8c0.3-0.8,1.2-3.4,2.8-7.7H43
		l-4.8,12.7c-0.5,1.3-1,2.1-1.7,2.7c-0.6,0.5-1.4,0.8-2.3,0.8c-0.5,0-1-0.1-1.5-0.2v-1.3c0.4,0.1,0.8,0.1,1.2,0.1
		c1.2,0,2-0.6,2.5-1.9L37,26L32.5,14.8z"/>
</g>
<g>
	<path class="st3" d="M112.1,25.9l-4.2-11.1h1.8l2.4,6.6c0.5,1.5,0.9,2.5,1,3h0.1c0.1-0.4,0.3-1.1,0.7-2.2c0.4-1.1,1.3-3.6,2.7-7.4
		h1.8l-4.2,11.1H112.1z"/>
	<path class="st3" d="M126.9,25.9l-0.3-1.6h-0.1c-0.6,0.7-1.1,1.2-1.7,1.4c-0.6,0.2-1.2,0.4-2.1,0.4c-1.1,0-2-0.3-2.6-0.9
		c-0.6-0.6-0.9-1.4-0.9-2.4c0-2.2,1.8-3.4,5.4-3.5l1.9-0.1v-0.7c0-0.9-0.2-1.5-0.6-1.9c-0.4-0.4-1-0.6-1.8-0.6c-0.9,0-2,0.3-3.1,0.9
		l-0.5-1.3c0.5-0.3,1.1-0.5,1.8-0.7c0.7-0.2,1.3-0.3,2-0.3c1.3,0,2.3,0.3,2.9,0.9c0.6,0.6,1,1.5,1,2.8v7.6H126.9z M123.1,24.7
		c1,0,1.9-0.3,2.5-0.9s0.9-1.4,0.9-2.4v-1l-1.7,0.1c-1.3,0-2.3,0.3-2.9,0.6c-0.6,0.4-0.9,0.9-0.9,1.7c0,0.6,0.2,1.1,0.6,1.4
		S122.5,24.7,123.1,24.7z"/>
	<path class="st3" d="M133.3,25.9h-1.7V10.1h1.7V25.9z"/>
	<path class="st3" d="M138.5,14.8V22c0,0.9,0.2,1.6,0.6,2c0.4,0.4,1.1,0.7,1.9,0.7c1.2,0,2-0.3,2.6-1c0.5-0.6,0.8-1.7,0.8-3.1v-5.8
		h1.7v11.1h-1.4l-0.2-1.5h-0.1c-0.3,0.5-0.8,1-1.4,1.3s-1.3,0.4-2.1,0.4c-1.4,0-2.4-0.3-3-1c-0.7-0.6-1-1.7-1-3.1v-7.3H138.5z"/>
	<path class="st3" d="M154.3,26.1c-1.6,0-2.9-0.5-3.9-1.5c-1-1-1.4-2.4-1.4-4.2c0-1.8,0.4-3.2,1.3-4.3s2.1-1.6,3.6-1.6
		c1.4,0,2.5,0.5,3.3,1.4c0.8,0.9,1.2,2.1,1.2,3.6v1.1h-7.7c0,1.3,0.4,2.3,1,3s1.5,1,2.6,1c1.2,0,2.4-0.2,3.5-0.8v1.5
		c-0.6,0.3-1.2,0.4-1.7,0.6C155.7,26.1,155.1,26.1,154.3,26.1z M153.9,16c-0.9,0-1.6,0.3-2.1,0.9c-0.5,0.6-0.8,1.4-0.9,2.4h5.8
		c0-1.1-0.2-1.9-0.7-2.4C155.4,16.3,154.8,16,153.9,16z"/>
</g>
<path class="st0" d="M48.3,92.2H4.2c-1.9,0-3.4-1.5-3.4-3.4V57.8c0-1.9,1.5-3.4,3.4-3.4h44.1c1.9,0,3.4,1.5,3.4,3.4v30.9
	C51.8,90.6,50.2,92.2,48.3,92.2z"/>
<path class="st1" d="M181.1,92.2H85.9c-1.9,0-3.4-1.5-3.4-3.4V57.8c0-1.9,1.5-3.4,3.4-3.4h95.2c1.9,0,3.4,1.5,3.4,3.4v30.9
	C184.5,90.6,183,92.2,181.1,92.2z"/>
<line class="st2" x1="51.8" y1="73.3" x2="82.5" y2="73.3"/>
<g>
	<path class="st3" d="M13.2,73.6c0.3-0.4,0.7-1,1.3-1.6l3.6-3.8h2L15.6,73l4.8,6.4h-2l-3.9-5.3l-1.3,1.1v4.2h-1.7V63.6h1.7v8.4
		C13.2,72.3,13.2,72.9,13.2,73.6L13.2,73.6z"/>
	<path class="st3" d="M27.1,79.5c-1.6,0-2.9-0.5-3.9-1.5c-1-1-1.4-2.4-1.4-4.2c0-1.8,0.4-3.2,1.3-4.3s2.1-1.6,3.6-1.6
		c1.4,0,2.5,0.5,3.3,1.4c0.8,0.9,1.2,2.1,1.2,3.6v1.1h-7.7c0,1.3,0.4,2.3,1,3s1.5,1,2.6,1c1.2,0,2.4-0.2,3.5-0.8v1.5
		c-0.6,0.3-1.2,0.4-1.7,0.6C28.5,79.5,27.9,79.5,27.1,79.5z M26.7,69.4c-0.9,0-1.6,0.3-2.1,0.9c-0.5,0.6-0.8,1.4-0.9,2.4h5.8
		c0-1.1-0.2-1.9-0.7-2.4C28.2,69.7,27.6,69.4,26.7,69.4z"/>
	<path class="st3" d="M32.3,68.2h1.8l2.4,6.3c0.5,1.4,0.9,2.5,1,3.1h0.1c0.1-0.3,0.3-0.9,0.6-1.8c0.3-0.8,1.2-3.4,2.8-7.7h1.8
		L38,80.9c-0.5,1.3-1,2.1-1.7,2.7c-0.6,0.5-1.4,0.8-2.3,0.8c-0.5,0-1-0.1-1.5-0.2v-1.3c0.4,0.1,0.8,0.1,1.2,0.1c1.2,0,2-0.6,2.5-1.9
		l0.6-1.6L32.3,68.2z"/>
</g>
<g>
	<path class="st3" d="M111.9,79.3l-4.2-11.1h1.8l2.4,6.6c0.5,1.5,0.9,2.5,1,3h0.1c0.1-0.4,0.3-1.1,0.7-2.2c0.4-1.1,1.3-3.6,2.7-7.4
		h1.8l-4.2,11.1H111.9z"/>
	<path class="st3" d="M126.7,79.3l-0.3-1.6h-0.1c-0.6,0.7-1.1,1.2-1.7,1.4c-0.6,0.2-1.2,0.4-2.1,0.4c-1.1,0-2-0.3-2.6-0.9
		c-0.6-0.6-0.9-1.4-0.9-2.4c0-2.2,1.8-3.4,5.4-3.5l1.9-0.1V72c0-0.9-0.2-1.5-0.6-1.9c-0.4-0.4-1-0.6-1.8-0.6c-0.9,0-2,0.3-3.1,0.9
		l-0.5-1.3c0.5-0.3,1.1-0.5,1.8-0.7c0.7-0.2,1.3-0.3,2-0.3c1.3,0,2.3,0.3,2.9,0.9c0.6,0.6,1,1.5,1,2.8v7.6H126.7z M122.9,78.1
		c1,0,1.9-0.3,2.5-0.9s0.9-1.4,0.9-2.4v-1l-1.7,0.1c-1.3,0-2.3,0.3-2.9,0.6c-0.6,0.4-0.9,0.9-0.9,1.7c0,0.6,0.2,1.1,0.6,1.4
		S122.3,78.1,122.9,78.1z"/>
	<path class="st3" d="M133.1,79.3h-1.7V63.6h1.7V79.3z"/>
	<path class="st3" d="M138.3,68.2v7.2c0,0.9,0.2,1.6,0.6,2c0.4,0.4,1.1,0.7,1.9,0.7c1.2,0,2-0.3,2.6-1c0.5-0.6,0.8-1.7,0.8-3.1v-5.8
		h1.7v11.1h-1.4l-0.2-1.5h-0.1c-0.3,0.5-0.8,1-1.4,1.3s-1.3,0.4-2.1,0.4c-1.4,0-2.4-0.3-3-1c-0.7-0.6-1-1.7-1-3.1v-7.3H138.3z"/>
	<path class="st3" d="M154.1,79.5c-1.6,0-2.9-0.5-3.9-1.5c-1-1-1.4-2.4-1.4-4.2c0-1.8,0.4-3.2,1.3-4.3s2.1-1.6,3.6-1.6
		c1.4,0,2.5,0.5,3.3,1.4c0.8,0.9,1.2,2.1,1.2,3.6v1.1h-7.7c0,1.3,0.4,2.3,1,3s1.5,1,2.6,1c1.2,0,2.4-0.2,3.5-0.8v1.5
		c-0.6,0.3-1.2,0.4-1.7,0.6C155.5,79.5,154.9,79.5,154.1,79.5z M153.7,69.4c-0.9,0-1.6,0.3-2.1,0.9c-0.5,0.6-0.8,1.4-0.9,2.4h5.8
		c0-1.1-0.2-1.9-0.7-2.4C155.2,69.7,154.6,69.4,153.7,69.4z"/>
</g>
<path class="st4" d="M48.3,145.6H4.2c-1.9,0-3.4-1.5-3.4-3.4v-30.9c0-1.9,1.5-3.4,3.4-3.4h44.1c1.9,0,3.4,1.5,3.4,3.4v30.9
	C51.8,144,50.2,145.6,48.3,145.6z"/>
<path class="st1" d="M181.1,145.6H85.9c-1.9,0-3.4-1.5-3.4-3.4v-30.9c0-1.9,1.5-3.4,3.4-3.4h95.2c1.9,0,3.4,1.5,3.4,3.4v30.9
	C184.5,144,183,145.6,181.1,145.6z"/>
<line class="st2" x1="51.8" y1="126.7" x2="82.5" y2="126.7"/>
<g>
	<path class="st3" d="M13.2,127c0.3-0.4,0.7-1,1.3-1.6l3.6-3.8h2l-4.5,4.7l4.8,6.4h-2l-3.9-5.3l-1.3,1.1v4.2h-1.7V117h1.7v8.4
		C13.2,125.7,13.2,126.3,13.2,127L13.2,127z"/>
	<path class="st3" d="M27.1,132.9c-1.6,0-2.9-0.5-3.9-1.5c-1-1-1.4-2.4-1.4-4.2c0-1.8,0.4-3.2,1.3-4.3s2.1-1.6,3.6-1.6
		c1.4,0,2.5,0.5,3.3,1.4c0.8,0.9,1.2,2.1,1.2,3.6v1.1h-7.7c0,1.3,0.4,2.3,1,3c0.6,0.7,1.5,1,2.6,1c1.2,0,2.4-0.2,3.5-0.8v1.5
		c-0.6,0.3-1.2,0.4-1.7,0.6C28.5,132.9,27.9,132.9,27.1,132.9z M26.7,122.8c-0.9,0-1.6,0.3-2.1,0.9c-0.5,0.6-0.8,1.4-0.9,2.4h5.8
		c0-1.1-0.2-1.9-0.7-2.4S27.6,122.8,26.7,122.8z"/>
	<path class="st3" d="M32.3,121.6h1.8l2.4,6.3c0.5,1.4,0.9,2.5,1,3.1h0.1c0.1-0.3,0.3-0.9,0.6-1.8c0.3-0.8,1.2-3.4,2.8-7.7h1.8
		L38,134.3c-0.5,1.3-1,2.1-1.7,2.7c-0.6,0.5-1.4,0.8-2.3,0.8c-0.5,0-1-0.1-1.5-0.2v-1.3c0.4,0.1,0.8,0.1,1.2,0.1
		c1.2,0,2-0.6,2.5-1.9l0.6-1.6L32.3,121.6z"/>
</g>
<g>
	<path class="st3" d="M111.9,132.7l-4.2-11.1h1.8l2.4,6.6c0.5,1.5,0.9,2.5,1,3h0.1c0.1-0.4,0.3-1.1,0.7-2.2s1.3-3.6,2.7-7.4h1.8
		l-4.2,11.1H111.9z"/>
	<path class="st3" d="M126.7,132.7l-0.3-1.6h-0.1c-0.6,0.7-1.1,1.2-1.7,1.4c-0.6,0.2-1.2,0.4-2.1,0.4c-1.1,0-2-0.3-2.6-0.9
		c-0.6-0.6-0.9-1.4-0.9-2.4c0-2.2,1.8-3.4,5.4-3.5l1.9-0.1v-0.7c0-0.9-0.2-1.5-0.6-1.9c-0.4-0.4-1-0.6-1.8-0.6c-0.9,0-2,0.3-3.1,0.9
		l-0.5-1.3c0.5-0.3,1.1-0.5,1.8-0.7c0.7-0.2,1.3-0.3,2-0.3c1.3,0,2.3,0.3,2.9,0.9c0.6,0.6,1,1.5,1,2.8v7.6H126.7z M122.9,131.6
		c1,0,1.9-0.3,2.5-0.9c0.6-0.6,0.9-1.4,0.9-2.4v-1l-1.7,0.1c-1.3,0-2.3,0.3-2.9,0.6c-0.6,0.4-0.9,0.9-0.9,1.7c0,0.6,0.2,1.1,0.6,1.4
		S122.3,131.6,122.9,131.6z"/>
	<path class="st3" d="M133.1,132.7h-1.7V117h1.7V132.7z"/>
	<path class="st3" d="M138.3,121.6v7.2c0,0.9,0.2,1.6,0.6,2c0.4,0.4,1.1,0.7,1.9,0.7c1.2,0,2-0.3,2.6-1s0.8-1.7,0.8-3.1v-5.8h1.7
		v11.1h-1.4l-0.2-1.5h-0.1c-0.3,0.5-0.8,1-1.4,1.3c-0.6,0.3-1.3,0.4-2.1,0.4c-1.4,0-2.4-0.3-3-1c-0.7-0.6-1-1.7-1-3.1v-7.3H138.3z"
		/>
	<path class="st3" d="M154.1,132.9c-1.6,0-2.9-0.5-3.9-1.5c-1-1-1.4-2.4-1.4-4.2c0-1.8,0.4-3.2,1.3-4.3s2.1-1.6,3.6-1.6
		c1.4,0,2.5,0.5,3.3,1.4c0.8,0.9,1.2,2.1,1.2,3.6v1.1h-7.7c0,1.3,0.4,2.3,1,3c0.6,0.7,1.5,1,2.6,1c1.2,0,2.4-0.2,3.5-0.8v1.5
		c-0.6,0.3-1.2,0.4-1.7,0.6C155.5,132.9,154.9,132.9,154.1,132.9z M153.7,122.8c-0.9,0-1.6,0.3-2.1,0.9c-0.5,0.6-0.8,1.4-0.9,2.4
		h5.8c0-1.1-0.2-1.9-0.7-2.4S154.6,122.8,153.7,122.8z"/>
</g>
<path class="st5" d="M48.3,199H4.2c-1.9,0-3.4-1.5-3.4-3.4v-30.9c0-1.9,1.5-3.4,3.4-3.4h44.1c1.9,0,3.4,1.5,3.4,3.4v30.9
	C51.8,197.4,50.2,199,48.3,199z"/>
<path class="st1" d="M181.1,199H85.9c-1.9,0-3.4-1.5-3.4-3.4v-30.9c0-1.9,1.5-3.4,3.4-3.4h95.2c1.9,0,3.4,1.5,3.4,3.4v30.9
	C184.5,197.4,183,199,181.1,199z"/>
<line class="st2" x1="51.8" y1="180.1" x2="82.5" y2="180.1"/>
<g>
	<path class="st3" d="M13.2,180.5c0.3-0.4,0.7-1,1.3-1.6l3.6-3.8h2l-4.5,4.7l4.8,6.4h-2l-3.9-5.3l-1.3,1.1v4.2h-1.7v-15.8h1.7v8.4
		C13.2,179.1,13.2,179.7,13.2,180.5L13.2,180.5z"/>
	<path class="st3" d="M27.1,186.3c-1.6,0-2.9-0.5-3.9-1.5c-1-1-1.4-2.4-1.4-4.2c0-1.8,0.4-3.2,1.3-4.3s2.1-1.6,3.6-1.6
		c1.4,0,2.5,0.5,3.3,1.4c0.8,0.9,1.2,2.1,1.2,3.6v1.1h-7.7c0,1.3,0.4,2.3,1,3c0.6,0.7,1.5,1,2.6,1c1.2,0,2.4-0.2,3.5-0.8v1.5
		c-0.6,0.3-1.2,0.4-1.7,0.6C28.5,186.3,27.9,186.3,27.1,186.3z M26.7,176.2c-0.9,0-1.6,0.3-2.1,0.9c-0.5,0.6-0.8,1.4-0.9,2.4h5.8
		c0-1.1-0.2-1.9-0.7-2.4S27.6,176.2,26.7,176.2z"/>
	<path class="st3" d="M32.3,175h1.8l2.4,6.3c0.5,1.4,0.9,2.5,1,3.1h0.1c0.1-0.3,0.3-0.9,0.6-1.8c0.3-0.8,1.2-3.4,2.8-7.7h1.8
		L38,187.7c-0.5,1.3-1,2.1-1.7,2.7c-0.6,0.5-1.4,0.8-2.3,0.8c-0.5,0-1-0.1-1.5-0.2v-1.3c0.4,0.1,0.8,0.1,1.2,0.1
		c1.2,0,2-0.6,2.5-1.9l0.6-1.6L32.3,175z"/>
</g>
<g>
	<path class="st3" d="M111.9,186.1l-4.2-11.1h1.8l2.4,6.6c0.5,1.5,0.9,2.5,1,3h0.1c0.1-0.4,0.3-1.1,0.7-2.2s1.3-3.6,2.7-7.4h1.8
		l-4.2,11.1H111.9z"/>
	<path class="st3" d="M126.7,186.1l-0.3-1.6h-0.1c-0.6,0.7-1.1,1.2-1.7,1.4c-0.6,0.2-1.2,0.4-2.1,0.4c-1.1,0-2-0.3-2.6-0.9
		c-0.6-0.6-0.9-1.4-0.9-2.4c0-2.2,1.8-3.4,5.4-3.5l1.9-0.1v-0.7c0-0.9-0.2-1.5-0.6-1.9c-0.4-0.4-1-0.6-1.8-0.6c-0.9,0-2,0.3-3.1,0.9
		l-0.5-1.3c0.5-0.3,1.1-0.5,1.8-0.7c0.7-0.2,1.3-0.3,2-0.3c1.3,0,2.3,0.3,2.9,0.9c0.6,0.6,1,1.5,1,2.8v7.6H126.7z M122.9,185
		c1,0,1.9-0.3,2.5-0.9c0.6-0.6,0.9-1.4,0.9-2.4v-1l-1.7,0.1c-1.3,0-2.3,0.3-2.9,0.6c-0.6,0.4-0.9,0.9-0.9,1.7c0,0.6,0.2,1.1,0.6,1.4
		S122.3,185,122.9,185z"/>
	<path class="st3" d="M133.1,186.1h-1.7v-15.8h1.7V186.1z"/>
	<path class="st3" d="M138.3,175v7.2c0,0.9,0.2,1.6,0.6,2c0.4,0.4,1.1,0.7,1.9,0.7c1.2,0,2-0.3,2.6-1s0.8-1.7,0.8-3.1V175h1.7v11.1
		h-1.4l-0.2-1.5h-0.1c-0.3,0.5-0.8,1-1.4,1.3c-0.6,0.3-1.3,0.4-2.1,0.4c-1.4,0-2.4-0.3-3-1c-0.7-0.6-1-1.7-1-3.1V175H138.3z"/>
	<path class="st3" d="M154.1,186.3c-1.6,0-2.9-0.5-3.9-1.5c-1-1-1.4-2.4-1.4-4.2c0-1.8,0.4-3.2,1.3-4.3s2.1-1.6,3.6-1.6
		c1.4,0,2.5,0.5,3.3,1.4c0.8,0.9,1.2,2.1,1.2,3.6v1.1h-7.7c0,1.3,0.4,2.3,1,3c0.6,0.7,1.5,1,2.6,1c1.2,0,2.4-0.2,3.5-0.8v1.5
		c-0.6,0.3-1.2,0.4-1.7,0.6C155.5,186.3,154.9,186.3,154.1,186.3z M153.7,176.2c-0.9,0-1.6,0.3-2.1,0.9c-0.5,0.6-0.8,1.4-0.9,2.4
		h5.8c0-1.1-0.2-1.9-0.7-2.4S154.6,176.2,153.7,176.2z"/>
</g>
</svg>
